<svg xmlns="http://www.w3.org/2000/svg" width="680" height="360" viewBox="0 0 680 360">
  <rect width="680" height="360" rx="20" fill="#f8fbff"/>
  <g stroke="#dbe2ef" stroke-width="1">
    <line x1="80" y1="300" x2="620" y2="300"/>
    <line x1="80" y1="300" x2="80" y2="60"/>
    <line x1="80" y1="240" x2="620" y2="240"/>
    <line x1="80" y1="180" x2="620" y2="180"/>
    <line x1="80" y1="120" x2="620" y2="120"/>
  </g>
  <path d="M80 250 L220 180 L360 210 L500 120 L620 90" fill="none" stroke="#3b82f6" stroke-width="4" stroke-linecap="round" stroke-linejoin="round"/>
  <circle cx="80" cy="250" r="6" fill="#2563eb"/>
  <circle cx="220" cy="180" r="6" fill="#2563eb"/>
  <circle cx="360" cy="210" r="6" fill="#2563eb"/>
  <circle cx="500" cy="120" r="6" fill="#2563eb"/>
  <circle cx="620" cy="90" r="6" fill="#2563eb"/>
  <text x="80" y="325" fill="#22324b" font-size="16" font-family="Arial, sans-serif">2020</text>
  <text x="220" y="325" fill="#22324b" font-size="16" font-family="Arial, sans-serif">2021</text>
  <text x="360" y="325" fill="#22324b" font-size="16" font-family="Arial, sans-serif">2022</text>
  <text x="500" y="325" fill="#22324b" font-size="16" font-family="Arial, sans-serif">2023</text>
  <text x="620" y="325" fill="#22324b" font-size="16" font-family="Arial, sans-serif">2024</text>
  <text x="90" y="45" fill="#22324b" font-size="22" font-family="Arial, sans-serif">Evolució de les dades</text>
</svg>